# xmcd
#
# Track frame offsets: 
#        150
#        14028
#        32908
#        46766
#        61217
#        75971
#        87260
#        98500
#        113034
#        129113
#        143559
#
# Disc length: 2218 seconds
#
# Revision: 0
# Processed by: cddbd v1.5.2PL0 Copyright (c) Steve Scherf et al.
# Submitted via: ExactAudioCopy v0.99pb5
#
DISCID=7908a80b
DTITLE=Miss Lana Rebel - All I Need
DYEAR=2007
DGENRE=Outlaw Country
TTITLE0=When I'm Gone
TTITLE1=Loneliest Love Song
TTITLE2=You Gotta Wait
TTITLE3=Li'l Bear
TTITLE4=Woke Up One Mornin'
TTITLE5=Dreaming of You
TTITLE6=Road Song
TTITLE7=Purify
TTITLE8=Blue Song
TTITLE9=Yes is Better Than No
TTITLE10=All I Need
EXTD=
EXTT0=
EXTT1=
EXTT2=
EXTT3=
EXTT4=
EXTT5=
EXTT6=
EXTT7=
EXTT8=
EXTT9=
EXTT10=
PLAYORDER=
